<svg width="58" height="15" viewBox="0 0 58 15" fill="none" xmlns="http://www.w3.org/2000/svg">
<path d="M0.383333 13.998V0.998046H2.71667V12.1147H8.5V13.998H0.383333ZM18.3089 14.2314C16.9644 14.2314 15.8422 13.9592 14.9422 13.4147C14.0533 12.8592 13.3866 12.0758 12.9422 11.0647C12.5089 10.0536 12.2922 8.86471 12.2922 7.49805C12.2922 6.12027 12.5089 4.93138 12.9422 3.93138C13.3866 2.92027 14.0533 2.14249 14.9422 1.59805C15.8422 1.04249 16.9644 0.764713 18.3089 0.764713C19.6755 0.764713 20.8033 1.04249 21.6922 1.59805C22.5811 2.14249 23.2422 2.92027 23.6755 3.93138C24.12 4.93138 24.3422 6.12027 24.3422 7.49805C24.3422 8.86471 24.12 10.0536 23.6755 11.0647C23.2422 12.0758 22.5811 12.8592 21.6922 13.4147C20.8033 13.9592 19.6755 14.2314 18.3089 14.2314ZM18.3089 12.4314C19.5533 12.4314 20.47 12.0036 21.0589 11.148C21.6477 10.2814 21.9422 9.06471 21.9422 7.49805C21.9422 5.93138 21.6477 4.72027 21.0589 3.86471C20.47 2.99805 19.5533 2.56471 18.3089 2.56471C17.0755 2.56471 16.1644 2.99805 15.5755 3.86471C14.9866 4.72027 14.6922 5.93138 14.6922 7.49805C14.6922 9.06471 14.9866 10.2814 15.5755 11.148C16.1644 12.0036 17.0755 12.4314 18.3089 12.4314ZM34.351 14.2314C33.1399 14.2314 32.1177 13.948 31.2844 13.3814C30.451 12.8147 29.8177 12.0203 29.3844 10.998C28.951 9.97582 28.7344 8.79805 28.7344 7.46471C28.7344 6.10916 28.951 4.93138 29.3844 3.93138C29.8288 2.92027 30.4899 2.14249 31.3677 1.59805C32.2566 1.04249 33.3566 0.764713 34.6677 0.764713C35.7566 0.764713 36.6788 0.953602 37.4344 1.33138C38.1899 1.70916 38.7844 2.24249 39.2177 2.93138C39.651 3.60916 39.9288 4.40916 40.051 5.33138H37.7844C37.651 4.44249 37.3177 3.75916 36.7844 3.28138C36.251 2.8036 35.5288 2.56471 34.6177 2.56471C33.4177 2.56471 32.5288 2.99805 31.951 3.86471C31.3733 4.73138 31.0844 5.93138 31.0844 7.46471C31.0844 9.0536 31.3899 10.2869 32.001 11.1647C32.6122 12.0314 33.5066 12.4647 34.6844 12.4647C35.6733 12.4647 36.4399 12.1758 36.9844 11.598C37.5399 11.0092 37.8455 10.2036 37.901 9.18138H33.951V7.41471H40.0677V13.998H38.301V12.448H37.901C37.6677 12.9258 37.2733 13.3425 36.7177 13.698C36.1733 14.0536 35.3844 14.2314 34.351 14.2314ZM51.037 14.2314C49.6925 14.2314 48.5703 13.9592 47.6703 13.4147C46.7814 12.8592 46.1148 12.0758 45.6703 11.0647C45.237 10.0536 45.0203 8.86471 45.0203 7.49805C45.0203 6.12027 45.237 4.93138 45.6703 3.93138C46.1148 2.92027 46.7814 2.14249 47.6703 1.59805C48.5703 1.04249 49.6925 0.764713 51.037 0.764713C52.4036 0.764713 53.5314 1.04249 54.4203 1.59805C55.3092 2.14249 55.9703 2.92027 56.4036 3.93138C56.8481 4.93138 57.0703 6.12027 57.0703 7.49805C57.0703 8.86471 56.8481 10.0536 56.4036 11.0647C55.9703 12.0758 55.3092 12.8592 54.4203 13.4147C53.5314 13.9592 52.4036 14.2314 51.037 14.2314ZM51.037 12.4314C52.2814 12.4314 53.1981 12.0036 53.787 11.148C54.3759 10.2814 54.6703 9.06471 54.6703 7.49805C54.6703 5.93138 54.3759 4.72027 53.787 3.86471C53.1981 2.99805 52.2814 2.56471 51.037 2.56471C49.8036 2.56471 48.8925 2.99805 48.3036 3.86471C47.7148 4.72027 47.4203 5.93138 47.4203 7.49805C47.4203 9.06471 47.7148 10.2814 48.3036 11.148C48.8925 12.0036 49.8036 12.4314 51.037 12.4314Z" fill="white"/>
</svg>
