<?xml version="1.0" standalone="no"?>
<!DOCTYPE svg PUBLIC "-//W3C//DTD SVG 20010904//EN"
 "http://www.w3.org/TR/2001/REC-SVG-20010904/DTD/svg10.dtd">
<svg version="1.0" xmlns="http://www.w3.org/2000/svg"
 width="512.000000pt" height="512.000000pt" viewBox="0 0 512.000000 512.000000"
 preserveAspectRatio="xMidYMid meet">

<g transform="translate(0.000000,512.000000) scale(0.100000,-0.100000)"
fill="#FFCE50" stroke="none">
<path d="M1113 5045 c-62 -41 -117 -83 -123 -94 -7 -13 -10 -481 -10 -1469 l0
-1450 -82 -3 c-62 -3 -94 -10 -128 -27 -63 -33 -125 -96 -152 -156 -23 -50
-23 -57 -26 -477 l-3 -426 -80 -5 c-126 -7 -123 -2 -127 -260 -4 -233 0 -270
29 -299 17 -17 34 -19 198 -19 l179 0 4 -129 c3 -141 10 -159 72 -205 26 -20
40 -21 286 -21 247 0 260 1 287 21 56 42 68 77 72 212 l3 122 1048 0 1048 0 3
-122 c4 -135 16 -170 72 -212 27 -20 40 -21 287 -21 246 0 260 1 286 21 62 46
69 64 72 205 l4 129 179 0 c164 0 181 2 198 19 29 29 33 66 29 299 -4 258 -1
253 -127 260 l-80 5 -3 426 c-3 420 -3 427 -26 477 -27 60 -89 123 -152 156
-34 17 -66 24 -127 27 l-83 3 0 1452 c0 1241 -2 1455 -14 1472 -23 32 -229
164 -256 164 -29 -1 -52 -16 -68 -47 -9 -16 -12 -151 -12 -480 l-1 -458 -42
105 c-49 120 -85 177 -150 237 -64 59 -116 89 -201 118 l-75 25 -758 0 c-824
0 -807 1 -921 -57 -69 -34 -160 -117 -202 -183 -18 -28 -50 -94 -71 -148 l-38
-97 0 458 c-1 469 -2 485 -40 514 -32 25 -66 13 -178 -62z m2577 -1735 l0
-380 -1130 0 -1130 0 0 380 0 380 1130 0 1130 0 0 -380z m-540 -942 c26 -14
53 -37 65 -58 19 -34 20 -51 20 -560 0 -512 -1 -526 -21 -560 -11 -19 -35 -45
-54 -57 l-33 -23 -567 0 -567 0 -33 23 c-19 12 -43 38 -54 57 -20 34 -21 48
-21 560 0 509 1 526 20 560 12 21 39 44 65 58 l44 22 546 0 546 0 44 -22z
m-1685 -958 c82 -77 70 -195 -25 -242 -51 -26 -339 -26 -389 0 -60 30 -93 102
-77 166 8 31 53 85 80 97 12 4 103 7 203 6 178 -2 182 -2 208 -27z m2630 0
c42 -39 58 -78 52 -128 -6 -53 -31 -91 -78 -114 -28 -15 -61 -18 -194 -18
-181 0 -212 8 -253 70 -34 50 -27 128 14 171 16 17 38 35 49 40 11 4 102 7
202 6 178 -2 182 -2 208 -27z"/>
<path d="M2030 2277 c-38 -19 -54 -60 -38 -94 26 -54 22 -53 579 -50 492 2
518 3 538 21 29 26 29 86 0 112 -20 18 -46 19 -538 22 -404 2 -521 -1 -541
-11z"/>
<path d="M2023 1968 c-25 -12 -45 -60 -36 -86 3 -9 13 -25 21 -34 14 -17 53
-18 549 -18 520 0 533 0 553 20 30 30 27 83 -6 109 -26 21 -35 21 -543 20
-342 0 -523 -4 -538 -11z"/>
<path d="M2022 1663 c-7 -3 -19 -18 -28 -35 -13 -25 -13 -35 -3 -59 6 -17 20
-34 30 -39 11 -6 225 -10 541 -10 514 0 525 0 546 20 14 14 22 33 22 55 0 22
-8 41 -22 55 -21 20 -32 20 -547 19 -289 0 -532 -3 -539 -6z"/>
<path d="M2008 1343 c-8 -10 -18 -26 -21 -35 -10 -27 12 -74 39 -87 18 -8 176
-11 538 -11 504 0 514 0 540 21 33 26 36 79 6 109 -20 20 -33 20 -553 20 -496
0 -535 -1 -549 -17z"/>
</g>
</svg>
